<?xml version="1.0" encoding="UTF-8" ?>
<!DOCTYPE svg PUBLIC "-//W3C//DTD SVG 1.1//EN" "http://www.w3.org/Graphics/SVG/1.1/DTD/svg11.dtd">
<svg width="202pt" height="70pt" viewBox="0 0 202 70" version="1.1" xmlns="http://www.w3.org/2000/svg">
<path fill="#ffffff" d=" M 0.00 0.00 L 202.00 0.00 L 202.00 70.00 L 0.00 70.00 L 0.00 0.00 Z" />
<path fill="#0075ba" d=" M 65.19 27.17 C 74.13 22.75 82.20 16.70 91.10 12.23 C 94.79 13.55 97.84 16.17 101.15 18.22 C 93.34 22.66 85.77 27.50 78.04 32.07 C 79.41 32.95 80.78 33.83 82.15 34.70 C 89.90 30.53 97.27 25.67 105.06 21.58 C 108.74 22.56 111.71 25.39 115.05 27.20 C 107.83 31.95 100.00 35.72 92.97 40.75 C 94.09 41.53 95.20 42.30 96.31 43.09 C 104.56 39.02 112.35 34.05 120.30 29.44 C 120.25 24.48 120.30 19.52 120.22 14.57 C 125.55 14.54 130.89 14.56 136.23 14.56 C 136.20 24.52 136.23 34.48 136.21 44.44 C 141.01 44.44 145.81 44.42 150.60 44.41 C 150.64 49.10 150.65 53.79 150.57 58.47 C 140.48 58.42 130.39 58.42 120.30 58.47 C 120.21 53.43 120.32 48.38 120.18 43.33 C 110.62 48.16 101.81 54.33 92.45 59.51 C 91.35 60.29 90.07 59.50 89.06 58.98 C 81.35 54.29 73.62 49.62 65.81 45.09 C 63.79 47.38 62.80 50.45 60.41 52.43 C 56.98 55.60 52.50 57.16 48.05 58.27 C 39.57 58.63 31.07 58.36 22.58 58.44 C 22.46 43.82 22.63 29.20 22.49 14.58 C 33.32 15.13 44.78 12.76 55.03 17.31 C 59.52 19.21 63.01 22.85 65.19 27.17 Z" />
<path fill="#0075ba" d=" M 154.12 14.57 C 159.47 14.54 164.83 14.57 170.18 14.55 C 170.15 24.51 170.20 34.47 170.15 44.43 C 174.95 44.43 179.74 44.43 184.54 44.41 C 184.56 49.10 184.57 53.79 184.52 58.48 C 174.42 58.36 164.33 58.53 154.24 58.37 C 154.10 43.77 154.33 29.17 154.12 14.57 Z" />
<path fill="#ffffff" d=" M 38.48 45.49 C 38.32 39.52 38.29 33.54 38.50 27.57 C 41.98 27.41 45.85 27.96 48.15 30.89 C 51.80 34.66 50.66 41.46 46.30 44.18 C 43.96 45.67 41.12 45.43 38.48 45.49 Z" />
</svg>
