<?xml version="1.0" encoding="UTF-8" ?>
<!DOCTYPE svg PUBLIC "-//W3C//DTD SVG 1.1//EN" "http://www.w3.org/Graphics/SVG/1.1/DTD/svg11.dtd">
<svg width="613pt" height="143pt" viewBox="0 0 613 143" version="1.1" xmlns="http://www.w3.org/2000/svg">
<path fill="#ffffff" d=" M 0.00 0.00 L 613.00 0.00 L 613.00 143.00 L 0.00 143.00 L 0.00 0.00 Z" />
<path fill="#df0303" d=" M 69.18 24.21 C 90.52 22.14 112.83 24.87 131.86 35.22 C 142.72 41.27 152.88 50.30 156.46 62.60 C 159.82 73.23 156.50 85.06 149.49 93.46 C 139.10 106.13 123.39 113.13 107.75 116.76 C 84.57 121.77 59.57 120.12 37.87 110.21 C 26.20 104.70 15.13 96.28 9.84 84.17 C 5.86 75.04 6.61 64.21 11.47 55.57 C 16.95 45.57 26.48 38.56 36.48 33.51 C 46.72 28.49 57.90 25.64 69.18 24.21 Z" />
<path fill="#ffffff" d=" M 66.00 30.36 C 81.17 28.49 96.87 28.84 111.59 33.22 C 116.89 35.14 123.10 37.22 125.90 42.52 C 127.12 45.71 125.27 48.97 122.71 50.85 C 116.15 55.79 107.88 57.33 100.03 58.98 C 98.31 50.02 96.08 40.51 89.66 33.64 C 86.10 29.82 79.85 29.40 76.00 33.05 C 69.17 39.87 66.78 49.70 65.00 58.89 C 60.46 58.17 55.98 57.17 51.60 55.77 C 47.34 53.83 42.53 52.19 39.78 48.14 C 37.85 45.40 38.81 41.41 41.35 39.40 C 48.30 33.73 57.38 31.86 66.00 30.36 Z" />
<path fill="#df0303" d=" M 273.45 35.55 C 281.95 34.02 291.05 34.97 298.69 39.15 C 307.83 43.83 314.86 52.51 317.38 62.48 C 319.86 72.97 317.98 84.63 311.25 93.22 C 301.42 106.92 281.86 111.88 266.46 105.36 C 255.83 101.14 247.44 91.73 244.62 80.63 C 242.47 71.27 243.56 60.93 248.74 52.72 C 254.01 43.80 263.33 37.54 273.45 35.55 Z" />
<path fill="#df0303" d=" M 422.32 35.23 C 430.12 34.27 438.27 35.09 445.32 38.76 C 456.24 43.99 464.17 55.02 465.51 67.07 C 467.02 78.02 462.97 89.41 455.19 97.20 C 444.71 107.96 427.66 111.07 413.86 105.43 C 402.68 101.01 394.02 90.80 391.59 79.01 C 389.94 70.90 390.94 62.15 394.93 54.84 C 400.16 44.33 410.82 37.07 422.32 35.23 Z" />
<path fill="#df0303" d=" M 179.87 37.30 C 199.81 37.24 219.76 37.18 239.70 37.33 C 239.79 41.58 239.80 45.84 239.70 50.09 C 232.39 50.06 225.08 50.02 217.78 50.13 C 217.67 68.89 217.86 87.65 217.72 106.40 C 212.45 106.47 207.18 106.45 201.92 106.45 C 201.76 87.70 202.04 68.95 201.87 50.21 C 194.53 49.87 187.19 50.27 179.86 49.95 C 179.97 45.73 179.97 41.51 179.87 37.30 Z" />
<path fill="#df0303" d=" M 319.03 37.30 C 325.20 37.17 331.36 37.31 337.53 37.23 C 343.32 46.85 348.89 56.59 354.65 66.22 C 360.24 56.57 366.14 47.10 371.52 37.34 C 377.78 37.19 384.04 37.25 390.30 37.28 C 381.29 51.67 371.80 65.78 362.93 80.24 C 362.59 88.94 362.85 97.66 362.83 106.37 C 357.43 106.51 352.03 106.40 346.63 106.43 C 346.53 97.77 346.56 89.12 346.61 80.47 C 337.55 66.00 328.10 51.77 319.03 37.30 Z" />
<path fill="#df0303" d=" M 470.30 37.33 C 490.23 37.17 510.18 37.25 530.12 37.29 C 530.02 41.51 530.01 45.73 530.15 49.95 C 522.81 50.26 515.46 49.86 508.13 50.21 C 507.97 68.95 508.24 87.70 508.08 106.44 C 502.82 106.41 497.55 106.45 492.29 106.42 C 492.12 87.66 492.33 68.89 492.22 50.13 C 484.91 50.01 477.60 50.08 470.29 50.08 C 470.20 45.83 470.21 41.58 470.30 37.33 Z" />
<path fill="#df0303" d=" M 554.35 37.40 C 560.74 37.02 567.17 37.36 573.58 37.26 C 583.17 60.35 593.23 83.25 602.57 106.43 C 596.42 106.42 590.26 106.50 584.11 106.40 C 582.15 101.26 580.01 96.20 578.15 91.03 C 568.53 90.98 558.91 91.01 549.29 90.99 C 547.36 96.15 545.30 101.26 543.44 106.44 C 537.23 106.41 531.02 106.42 524.82 106.46 C 533.32 85.56 542.32 64.86 551.04 44.04 C 552.19 41.90 552.51 39.02 554.35 37.40 Z" />
<path fill="#ffffff" d=" M 80.35 41.87 C 81.99 41.88 83.95 41.36 85.27 42.67 C 90.50 46.79 91.62 53.74 93.10 59.83 C 86.09 60.11 79.05 60.11 72.04 59.83 C 73.11 53.25 75.09 46.37 80.35 41.87 Z" />
<path fill="#ffffff" d=" M 18.91 60.48 C 20.12 55.75 23.08 51.81 25.67 47.77 C 26.71 54.65 32.29 59.73 38.13 62.88 C 46.06 67.48 55.13 69.52 64.06 71.18 C 63.81 80.51 64.95 89.96 67.72 98.88 C 69.50 104.59 72.36 110.05 76.69 114.25 C 70.87 114.28 65.19 112.99 59.53 111.79 C 46.52 108.17 33.67 101.72 25.22 90.88 C 18.39 82.56 15.62 70.84 18.91 60.48 Z" />
<path fill="#ffffff" d=" M 139.29 47.76 C 144.54 54.62 148.17 63.08 147.38 71.87 C 146.79 83.75 138.90 93.88 129.58 100.64 C 117.55 109.13 102.92 113.69 88.26 114.27 C 96.26 106.73 98.90 95.39 100.20 84.87 C 100.97 80.35 101.13 75.76 100.95 71.19 C 111.07 69.42 121.30 66.72 129.98 61.02 C 134.44 57.84 138.62 53.46 139.29 47.76 Z" />
<path fill="#ffffff" d=" M 278.46 48.54 C 287.12 47.18 295.82 52.84 299.37 60.63 C 304.58 70.80 301.52 84.49 292.06 91.05 C 286.27 95.22 278.02 95.85 271.83 92.21 C 265.88 89.01 261.80 82.87 260.62 76.28 C 257.80 64.36 265.85 50.19 278.46 48.54 Z" />
<path fill="#ffffff" d=" M 425.42 48.59 C 432.08 47.35 439.10 50.38 443.32 55.56 C 452.09 65.32 450.77 82.27 440.35 90.33 C 434.10 95.64 424.36 96.07 417.67 91.33 C 407.97 85.02 404.80 71.16 409.82 60.92 C 412.56 54.60 418.52 49.60 425.42 48.59 Z" />
<path fill="#ffffff" d=" M 553.83 79.44 C 557.04 70.99 560.28 62.56 563.64 54.17 C 567.26 62.38 570.38 70.83 573.45 79.26 C 566.91 79.49 560.37 79.23 553.83 79.44 Z" />
<path fill="#ffffff" d=" M 71.39 72.02 C 78.78 72.58 86.21 72.60 93.60 71.97 C 93.44 79.50 92.46 87.25 89.05 94.05 C 87.46 96.90 84.74 100.40 81.01 99.34 C 78.06 97.87 76.24 94.90 75.00 91.96 C 72.40 85.65 71.56 78.79 71.39 72.02 Z" />
</svg>
